<svg width="70" height="30" viewBox="0 0 70 30" fill="none" xmlns="http://www.w3.org/2000/svg">
<g clip-path="url(#clip0_2571_6652)">
<path d="M32.7035 8.08531C33.0994 8.08531 33.3876 8.01914 33.5681 7.88681C33.7486 7.75447 33.8389 7.56747 33.8389 7.32581C33.8389 7.18197 33.8068 7.05826 33.7428 6.9547C33.6846 6.85113 33.5972 6.75907 33.4808 6.67852C33.3702 6.59221 33.2333 6.51453 33.0703 6.44549C32.9073 6.37069 32.721 6.29877 32.5114 6.22972C32.3018 6.15492 32.098 6.07437 31.9001 5.98807C31.7079 5.89601 31.5362 5.78381 31.3848 5.65147C31.2392 5.51913 31.1199 5.36091 31.0267 5.17679C30.9394 4.99267 30.8957 4.77115 30.8957 4.51223C30.8957 3.97138 31.085 3.54847 31.4634 3.24353C31.8418 2.93282 32.3571 2.77747 33.0092 2.77747C33.3876 2.77747 33.7224 2.82062 34.0135 2.90693C34.3105 2.98748 34.5433 3.07667 34.7122 3.17448L34.3716 4.0548C34.1736 3.94548 33.9553 3.86205 33.7166 3.80452C33.4837 3.74698 33.2421 3.71821 32.9917 3.71821C32.6948 3.71821 32.4619 3.77862 32.2931 3.89945C32.13 4.02028 32.0485 4.19002 32.0485 4.40866C32.0485 4.541 32.0747 4.65607 32.1271 4.75389C32.1854 4.84595 32.264 4.92938 32.3629 5.00417C32.4677 5.07897 32.5871 5.14802 32.721 5.21131C32.8607 5.2746 33.0121 5.33502 33.1751 5.39255C33.4604 5.49612 33.7137 5.60256 33.9349 5.71189C34.162 5.81545 34.3512 5.94204 34.5026 6.09163C34.6598 6.23548 34.7791 6.40809 34.8607 6.60947C34.9422 6.8051 34.9829 7.04388 34.9829 7.32581C34.9829 7.86667 34.7879 8.28669 34.3978 8.58589C34.0135 8.87933 33.4488 9.02605 32.7035 9.02605C32.4532 9.02605 32.2232 9.00879 32.0136 8.97426C31.8098 8.9455 31.6264 8.9081 31.4634 8.86207C31.3062 8.81604 31.1694 8.77001 31.0529 8.72398C30.9365 8.67219 30.8433 8.62616 30.7735 8.58589L31.0966 7.69693C31.2538 7.78324 31.4663 7.86954 31.7341 7.95585C32.002 8.04216 32.3251 8.08531 32.7035 8.08531ZM40.0311 6.63536C40.0311 6.9921 39.9787 7.31718 39.8739 7.61063C39.7691 7.90407 39.6207 8.15435 39.4285 8.36149C39.2364 8.56862 39.0035 8.72973 38.7299 8.84481C38.462 8.95988 38.1651 9.01742 37.8391 9.01742C37.513 9.01742 37.2161 8.95988 36.9483 8.84481C36.6804 8.72973 36.4505 8.56862 36.2583 8.36149C36.0662 8.15435 35.9148 7.90407 35.8042 7.61063C35.6994 7.31718 35.647 6.9921 35.647 6.63536C35.647 6.27863 35.6994 5.95642 35.8042 5.66873C35.9148 5.37529 36.0662 5.125 36.2583 4.91787C36.4563 4.71073 36.6892 4.5525 36.957 4.44318C37.2248 4.32811 37.5188 4.27057 37.8391 4.27057C38.1593 4.27057 38.4533 4.32811 38.7211 4.44318C38.9948 4.5525 39.2277 4.71073 39.4198 4.91787C39.6119 5.125 39.7604 5.37529 39.8652 5.66873C39.9758 5.95642 40.0311 6.27863 40.0311 6.63536ZM38.9482 6.63536C38.9482 6.18657 38.8492 5.83272 38.6513 5.5738C38.4591 5.30912 38.1884 5.17679 37.8391 5.17679C37.4897 5.17679 37.2161 5.30912 37.0181 5.5738C36.826 5.83272 36.7299 6.18657 36.7299 6.63536C36.7299 7.08991 36.826 7.44952 37.0181 7.71419C37.2161 7.97887 37.4897 8.1112 37.8391 8.1112C38.1884 8.1112 38.4591 7.97887 38.6513 7.71419C38.8492 7.44952 38.9482 7.08991 38.9482 6.63536ZM42.7092 8.9829C42.3948 8.97714 42.1328 8.94262 41.9232 8.87933C41.7194 8.81604 41.5564 8.72685 41.4342 8.61178C41.3119 8.49095 41.2246 8.34423 41.1722 8.17162C41.1256 7.99325 41.1023 7.79187 41.1023 7.56747V2.37183L42.159 2.19922V7.36897C42.159 7.49555 42.1678 7.60199 42.1852 7.6883C42.2085 7.77461 42.2464 7.84941 42.2988 7.9127C42.3512 7.97023 42.421 8.01626 42.5084 8.05079C42.6015 8.07956 42.718 8.10257 42.8577 8.11983L42.7092 8.9829ZM47.4591 8.7585C47.2553 8.81028 46.9904 8.86207 46.6644 8.91385C46.3383 8.97139 45.9803 9.00016 45.5902 9.00016C45.2234 9.00016 44.9148 8.94837 44.6644 8.84481C44.4199 8.74124 44.2219 8.59739 44.0706 8.41327C43.925 8.22915 43.8202 8.01051 43.7562 7.75735C43.6921 7.49843 43.6601 7.21649 43.6601 6.91154V4.38277H44.7168V6.74756C44.7168 7.23088 44.7867 7.5761 44.9264 7.78324C45.072 7.99037 45.3223 8.09394 45.6775 8.09394C45.8056 8.09394 45.9395 8.08819 46.0792 8.07668C46.2248 8.06517 46.3325 8.05079 46.4024 8.03353V4.38277H47.4591V8.7585ZM49.9481 8.14572C50.2276 8.14572 50.4314 8.11408 50.5595 8.05079C50.6876 7.98174 50.7516 7.86667 50.7516 7.70556C50.7516 7.55596 50.6817 7.43226 50.542 7.33444C50.4081 7.23663 50.1839 7.13019 49.8695 7.01511C49.6774 6.94607 49.4998 6.87414 49.3368 6.79935C49.1796 6.71879 49.0428 6.62673 48.9263 6.52317C48.8099 6.4196 48.7167 6.29589 48.6469 6.15205C48.5828 6.00245 48.5508 5.82121 48.5508 5.60832C48.5508 5.19405 48.7051 4.86896 49.0137 4.63306C49.3223 4.3914 49.7415 4.27057 50.2713 4.27057C50.5391 4.27057 50.7953 4.29646 51.0398 4.34825C51.2843 4.39428 51.4677 4.44031 51.59 4.48634L51.3979 5.33214C51.2814 5.28035 51.133 5.23432 50.9525 5.19405C50.772 5.14802 50.5624 5.125 50.3237 5.125C50.1083 5.125 49.9336 5.1624 49.7997 5.2372C49.6658 5.30625 49.5988 5.41557 49.5988 5.56517C49.5988 5.63996 49.6105 5.70613 49.6337 5.76367C49.6629 5.82121 49.7094 5.87587 49.7735 5.92765C49.8375 5.97368 49.9219 6.02259 50.0267 6.07437C50.1315 6.1204 50.2596 6.16931 50.411 6.22109C50.6614 6.31315 50.8739 6.40521 51.0485 6.49727C51.2232 6.58358 51.3659 6.68427 51.4765 6.79935C51.5929 6.90867 51.6773 7.03525 51.7297 7.17909C51.7821 7.32294 51.8083 7.49555 51.8083 7.69693C51.8083 8.12846 51.6453 8.45643 51.3193 8.68082C50.9991 8.89947 50.5391 9.00879 49.9394 9.00879C49.5377 9.00879 49.2145 8.97427 48.97 8.90522C48.7255 8.84193 48.5537 8.79014 48.4548 8.74987L48.6381 7.87817C48.7953 7.94147 48.9817 8.00188 49.1971 8.05942C49.4183 8.11696 49.6687 8.14572 49.9481 8.14572ZM53.8609 8.89659H52.8042V4.38277H53.8609V8.89659ZM53.9744 3.06228C53.9744 3.25791 53.9104 3.41326 53.7823 3.52834C53.6542 3.64341 53.5028 3.70095 53.3282 3.70095C53.1477 3.70095 52.9934 3.64341 52.8653 3.52834C52.7372 3.41326 52.6732 3.25791 52.6732 3.06228C52.6732 2.8609 52.7372 2.70267 52.8653 2.5876C52.9934 2.47252 53.1477 2.41498 53.3282 2.41498C53.5028 2.41498 53.6542 2.47252 53.7823 2.5876C53.9104 2.70267 53.9744 2.8609 53.9744 3.06228ZM35.4545 12.6969V13.6377H33.5943V18.678H32.4852V13.6377H30.625V12.6969H35.4545ZM35.5105 16.4426C35.5105 16.0456 35.5688 15.6975 35.6852 15.3983C35.8075 15.0991 35.9676 14.8517 36.1655 14.6561C36.3635 14.4547 36.5906 14.3051 36.8467 14.2073C37.1029 14.1037 37.3649 14.052 37.6327 14.052C38.2615 14.052 38.7506 14.2447 39.0999 14.6302C39.4551 15.0157 39.6327 15.5911 39.6327 16.3563C39.6327 16.4139 39.6297 16.48 39.6239 16.5548C39.6239 16.6239 39.621 16.6872 39.6152 16.7447H36.6022C36.6313 17.1072 36.7594 17.3891 36.9865 17.5905C37.2193 17.7861 37.5541 17.884 37.9908 17.884C38.247 17.884 38.4799 17.8609 38.6895 17.8149C38.9049 17.7689 39.0737 17.72 39.196 17.6682L39.3357 18.5226C39.2775 18.5514 39.196 18.583 39.0912 18.6176C38.9922 18.6463 38.8758 18.6722 38.7419 18.6952C38.6138 18.724 38.474 18.747 38.3227 18.7643C38.1713 18.7815 38.017 18.7902 37.8598 18.7902C37.4581 18.7902 37.1087 18.7326 36.8118 18.6176C36.5149 18.4967 36.2703 18.3327 36.0782 18.1256C35.8861 17.9127 35.7434 17.6653 35.6503 17.3834C35.5571 17.0957 35.5105 16.7821 35.5105 16.4426ZM38.5759 15.9766C38.5759 15.8327 38.5555 15.6975 38.5148 15.5709C38.474 15.4386 38.4129 15.3264 38.3314 15.2343C38.2557 15.1365 38.1596 15.0617 38.0432 15.01C37.9326 14.9524 37.7987 14.9236 37.6415 14.9236C37.4784 14.9236 37.3358 14.9553 37.2135 15.0186C37.0913 15.0761 36.9865 15.1538 36.8991 15.2516C36.8176 15.3494 36.7536 15.4616 36.707 15.5882C36.6604 15.7148 36.6284 15.8442 36.6109 15.9766H38.5759ZM41.8098 15.9248C41.9437 15.7867 42.0863 15.64 42.2377 15.4846C42.3891 15.3235 42.5375 15.1653 42.6831 15.01C42.8286 14.8488 42.9655 14.6964 43.0935 14.5525C43.2275 14.4029 43.341 14.2735 43.4341 14.1642H44.683C44.3919 14.4864 44.0833 14.8201 43.7573 15.1653C43.4371 15.5105 43.1139 15.8471 42.7879 16.1751C42.9625 16.3189 43.1459 16.4944 43.3381 16.7016C43.5302 16.9029 43.7165 17.1187 43.897 17.3489C44.0775 17.579 44.2463 17.8092 44.4035 18.0393C44.5607 18.2695 44.6917 18.4823 44.7965 18.678H43.5739C43.4691 18.4996 43.3468 18.3126 43.2071 18.117C43.0732 17.9214 42.9276 17.7315 42.7704 17.5474C42.6132 17.3632 42.4531 17.1906 42.2901 17.0295C42.1271 16.8627 41.967 16.7217 41.8098 16.6066V18.678H40.753V12.1532L41.8098 11.9806V15.9248ZM45.5632 14.3109C45.767 14.2533 46.0319 14.1987 46.3579 14.1469C46.684 14.0951 47.045 14.0692 47.4409 14.0692C47.8135 14.0692 48.125 14.121 48.3753 14.2246C48.6257 14.3224 48.8236 14.4633 48.9692 14.6475C49.1206 14.8258 49.2254 15.0445 49.2836 15.3034C49.3476 15.5566 49.3797 15.8356 49.3797 16.1406V18.678H48.3229V16.3045C48.3229 16.0629 48.3055 15.8586 48.2705 15.6918C48.2414 15.5192 48.189 15.3811 48.1133 15.2775C48.0435 15.1682 47.9445 15.0905 47.8164 15.0445C47.6941 14.9927 47.5428 14.9668 47.3623 14.9668C47.2284 14.9668 47.0886 14.9754 46.9431 14.9927C46.7975 15.01 46.6898 15.0243 46.6199 15.0358V18.678H45.5632V14.3109ZM54.8027 16.4167C54.8027 16.7735 54.7503 17.0986 54.6455 17.392C54.5407 17.6854 54.3922 17.9357 54.2001 18.1429C54.008 18.35 53.7751 18.5111 53.5014 18.6262C53.2336 18.7413 52.9367 18.7988 52.6106 18.7988C52.2846 18.7988 51.9877 18.7413 51.7198 18.6262C51.452 18.5111 51.222 18.35 51.0299 18.1429C50.8378 17.9357 50.6864 17.6854 50.5758 17.392C50.471 17.0986 50.4186 16.7735 50.4186 16.4167C50.4186 16.06 50.471 15.7378 50.5758 15.4501C50.6864 15.1567 50.8378 14.9064 51.0299 14.6992C51.2279 14.4921 51.4608 14.3339 51.7286 14.2246C51.9964 14.1095 52.2904 14.052 52.6106 14.052C52.9309 14.052 53.2249 14.1095 53.4927 14.2246C53.7664 14.3339 53.9992 14.4921 54.1914 14.6992C54.3835 14.9064 54.532 15.1567 54.6368 15.4501C54.7474 15.7378 54.8027 16.06 54.8027 16.4167ZM53.7198 16.4167C53.7198 15.968 53.6208 15.6141 53.4228 15.3552C53.2307 15.0905 52.96 14.9582 52.6106 14.9582C52.2613 14.9582 51.9877 15.0905 51.7897 15.3552C51.5976 15.6141 51.5015 15.968 51.5015 16.4167C51.5015 16.8713 51.5976 17.2309 51.7897 17.4956C51.9877 17.7602 52.2613 17.8926 52.6106 17.8926C52.96 17.8926 53.2307 17.7602 53.4228 17.4956C53.6208 17.2309 53.7198 16.8713 53.7198 16.4167ZM57.4811 18.7643C57.1667 18.7585 56.9047 18.724 56.6948 18.6607C56.491 18.5974 56.328 18.5082 56.2057 18.3932C56.0835 18.2723 55.9961 18.1256 55.9437 17.953C55.8972 17.7746 55.8739 17.5733 55.8739 17.3489V12.1532L56.9309 11.9806V17.1503C56.9309 17.2769 56.9396 17.3834 56.9571 17.4697C56.9804 17.556 57.0182 17.6308 57.0706 17.6941C57.123 17.7516 57.1929 17.7976 57.2802 17.8322C57.3734 17.8609 57.4898 17.884 57.6296 17.9012L57.4811 18.7643ZM62.6151 16.4167C62.6151 16.7735 62.5627 17.0986 62.4579 17.392C62.3531 17.6854 62.2047 17.9357 62.0125 18.1429C61.8204 18.35 61.5875 18.5111 61.3139 18.6262C61.046 18.7413 60.7491 18.7988 60.4231 18.7988C60.097 18.7988 59.8001 18.7413 59.5323 18.6262C59.2644 18.5111 59.0345 18.35 58.8423 18.1429C58.6502 17.9357 58.4988 17.6854 58.3882 17.392C58.2834 17.0986 58.231 16.7735 58.231 16.4167C58.231 16.06 58.2834 15.7378 58.3882 15.4501C58.4988 15.1567 58.6502 14.9064 58.8423 14.6992C59.0403 14.4921 59.2732 14.3339 59.541 14.2246C59.8088 14.1095 60.1028 14.052 60.4231 14.052C60.7433 14.052 61.0373 14.1095 61.3051 14.2246C61.5788 14.3339 61.8116 14.4921 62.0038 14.6992C62.1959 14.9064 62.3444 15.1567 62.4492 15.4501C62.5598 15.7378 62.6151 16.06 62.6151 16.4167ZM61.5322 16.4167C61.5322 15.968 61.4332 15.6141 61.2353 15.3552C61.0431 15.0905 60.7724 14.9582 60.4231 14.9582C60.0737 14.9582 59.8001 15.0905 59.6021 15.3552C59.41 15.6141 59.3139 15.968 59.3139 16.4167C59.3139 16.8713 59.41 17.2309 59.6021 17.4956C59.8001 17.7602 60.0737 17.8926 60.4231 17.8926C60.7724 17.8926 61.0431 17.7602 61.2353 17.4956C61.4332 17.2309 61.5322 16.8713 61.5322 16.4167ZM64.5329 16.3045C64.5329 16.7476 64.629 17.0727 64.8211 17.2798C65.0191 17.4812 65.2724 17.5819 65.5809 17.5819C65.7498 17.5819 65.907 17.5589 66.0525 17.5128C66.2039 17.4668 66.3262 17.4121 66.4193 17.3489V15.01C66.3437 14.9927 66.2505 14.9783 66.1399 14.9668C66.0293 14.9495 65.8895 14.9409 65.7207 14.9409C65.3364 14.9409 65.0424 15.0675 64.8386 15.3207C64.6348 15.5681 64.5329 15.896 64.5329 16.3045ZM67.4761 18.2205C67.4761 18.9398 67.2898 19.4662 66.9171 19.8C66.5503 20.1337 65.9856 20.3005 65.2229 20.3005C64.9434 20.3005 64.6698 20.2775 64.402 20.2315C64.1399 20.1855 63.9012 20.125 63.6858 20.0502L63.8779 19.1613C64.0584 19.2361 64.2622 19.2965 64.4893 19.3425C64.7222 19.3886 64.9725 19.4116 65.2403 19.4116C65.6654 19.4116 65.9681 19.3253 66.1486 19.1527C66.3291 18.98 66.4193 18.724 66.4193 18.3845V18.2119C66.3145 18.2637 66.1748 18.3155 66.0001 18.3673C65.8313 18.4191 65.6363 18.4449 65.415 18.4449C65.1239 18.4449 64.8561 18.3989 64.6115 18.3069C64.3728 18.2148 64.1661 18.0796 63.9915 17.9012C63.8226 17.7228 63.6887 17.5013 63.5898 17.2367C63.4966 16.9662 63.45 16.6555 63.45 16.3045C63.45 15.9766 63.4995 15.6745 63.5985 15.3983C63.7033 15.1222 63.8518 14.8862 64.0439 14.6906C64.2418 14.495 64.4805 14.3425 64.76 14.2332C65.0395 14.1239 65.3568 14.0692 65.7119 14.0692C66.0555 14.0692 66.3815 14.0951 66.6901 14.1469C66.9987 14.1987 67.2607 14.2533 67.4761 14.3109V18.2205ZM69.8865 18.678H68.8297V14.1642H69.8865V18.678ZM70 12.8437C70 13.0393 69.936 13.1946 69.8079 13.3097C69.6798 13.4248 69.5284 13.4823 69.3537 13.4823C69.1732 13.4823 69.019 13.4248 68.8909 13.3097C68.7628 13.1946 68.6987 13.0393 68.6987 12.8437C68.6987 12.6423 68.7628 12.4841 68.8909 12.369C69.019 12.2539 69.1732 12.1964 69.3537 12.1964C69.5284 12.1964 69.6798 12.2539 69.8079 12.369C69.936 12.4841 70 12.6423 70 12.8437ZM34.8519 28.4594C34.7005 28.2292 34.5259 27.9875 34.3279 27.7344C34.13 27.4812 33.9204 27.2367 33.6991 27.0008C33.4837 26.7649 33.2595 26.5405 33.0267 26.3276C32.7938 26.1147 32.5638 25.9306 32.3367 25.7752V28.4594H31.2363V22.4783H32.3367V24.9467C32.5289 24.7568 32.7297 24.5554 32.9393 24.3425C33.1489 24.1239 33.3556 23.9053 33.5594 23.6866C33.769 23.4622 33.9669 23.2465 34.1533 23.0393C34.3396 22.8322 34.5084 22.6452 34.6598 22.4783H35.9785C35.7864 22.697 35.5826 22.9242 35.3672 23.1601C35.1518 23.396 34.9305 23.6348 34.7035 23.8765C34.4764 24.1124 34.2464 24.3483 34.0135 24.5842C33.7865 24.8201 33.5623 25.0445 33.3411 25.2574C33.5856 25.4415 33.833 25.6573 34.0834 25.9047C34.3396 26.1463 34.5899 26.4081 34.8345 26.6901C35.079 26.9663 35.3119 27.2568 35.5331 27.5618C35.7602 27.861 35.9669 28.1602 36.1532 28.4594H34.8519ZM39.475 24.8863C39.3877 24.8575 39.2654 24.8287 39.1082 24.8C38.9569 24.7654 38.7793 24.7482 38.5755 24.7482C38.4591 24.7482 38.3339 24.7597 38.2 24.7827C38.0719 24.8057 37.9817 24.8259 37.9293 24.8431V28.4594H36.8725V24.1613C37.0763 24.0865 37.3296 24.0175 37.6323 23.9542C37.9409 23.8851 38.2815 23.8506 38.6541 23.8506C38.724 23.8506 38.8055 23.8563 38.8986 23.8679C38.9918 23.8736 39.085 23.8851 39.1781 23.9024C39.2713 23.9139 39.3615 23.9311 39.4488 23.9542C39.5362 23.9714 39.606 23.9887 39.6584 24.0059L39.475 24.8863ZM40.1416 26.224C40.1416 25.827 40.1998 25.4789 40.3162 25.1797C40.4385 24.8805 40.5986 24.6331 40.7966 24.4375C40.9945 24.2361 41.2216 24.0865 41.4778 23.9887C41.7339 23.8851 41.9959 23.8333 42.2638 23.8333C42.8926 23.8333 43.3816 24.0261 43.731 24.4116C44.0861 24.7971 44.2637 25.3725 44.2637 26.1377C44.2637 26.1953 44.2608 26.2614 44.255 26.3362C44.255 26.4053 44.2521 26.4686 44.2462 26.5261H41.2332C41.2623 26.8886 41.3904 27.1705 41.6175 27.3719C41.8504 27.5675 42.1852 27.6653 42.6218 27.6653C42.878 27.6653 43.1109 27.6423 43.3205 27.5963C43.5359 27.5503 43.7048 27.5014 43.827 27.4496L43.9668 28.304C43.9085 28.3328 43.827 28.3644 43.7222 28.3989C43.6233 28.4277 43.5068 28.4536 43.3729 28.4766C43.2448 28.5054 43.1051 28.5284 42.9537 28.5457C42.8023 28.5629 42.648 28.5716 42.4908 28.5716C42.0891 28.5716 41.7398 28.514 41.4428 28.3989C41.1459 28.2781 40.9014 28.1141 40.7092 27.907C40.5171 27.6941 40.3745 27.4467 40.2813 27.1648C40.1881 26.8771 40.1416 26.5635 40.1416 26.224ZM43.207 25.758C43.207 25.6141 43.1866 25.4789 43.1458 25.3523C43.1051 25.22 43.0439 25.1078 42.9624 25.0157C42.8867 24.9179 42.7907 24.8431 42.6742 24.7913C42.5636 24.7338 42.4297 24.705 42.2725 24.705C42.1095 24.705 41.9668 24.7367 41.8446 24.8C41.7223 24.8575 41.6175 24.9352 41.5302 25.033C41.4487 25.1308 41.3846 25.243 41.338 25.3696C41.2915 25.4962 41.2594 25.6256 41.242 25.758H43.207ZM46.991 27.7257C47.317 27.7257 47.5645 27.7085 47.7333 27.674V26.5175C47.6751 26.5002 47.5907 26.4829 47.4801 26.4657C47.3694 26.4484 47.2472 26.4398 47.1133 26.4398C46.9968 26.4398 46.8775 26.4484 46.7552 26.4657C46.6387 26.4829 46.531 26.5146 46.4321 26.5606C46.3389 26.6066 46.2632 26.6728 46.205 26.7591C46.1468 26.8397 46.1177 26.9432 46.1177 27.0698C46.1177 27.3172 46.1963 27.4898 46.3535 27.5877C46.5107 27.6797 46.7232 27.7257 46.991 27.7257ZM46.9037 23.8333C47.253 23.8333 47.547 23.8765 47.7857 23.9628C48.0244 24.0491 48.2137 24.1699 48.3534 24.3253C48.4989 24.4806 48.6008 24.6705 48.6591 24.8949C48.7231 25.1135 48.7551 25.3552 48.7551 25.6199V28.3558C48.5921 28.3903 48.3447 28.4306 48.0128 28.4766C47.6867 28.5284 47.317 28.5543 46.9037 28.5543C46.63 28.5543 46.3797 28.5284 46.1526 28.4766C45.9255 28.4248 45.7305 28.3414 45.5675 28.2263C45.4103 28.1113 45.2851 27.9617 45.1919 27.7775C45.1046 27.5934 45.0609 27.3661 45.0609 27.0957C45.0609 26.8368 45.1104 26.6182 45.2094 26.4398C45.3142 26.2614 45.4539 26.1176 45.6286 26.0083C45.8033 25.8932 46.0041 25.8126 46.2312 25.7666C46.4641 25.7148 46.7057 25.6889 46.9561 25.6889C47.0725 25.6889 47.1948 25.6976 47.3229 25.7148C47.4509 25.7263 47.5878 25.7493 47.7333 25.7839V25.6112C47.7333 25.4904 47.7188 25.3753 47.6897 25.266C47.6605 25.1567 47.6081 25.0618 47.5325 24.9812C47.4626 24.8949 47.3665 24.8287 47.2443 24.7827C47.1278 24.7367 46.9793 24.7137 46.7989 24.7137C46.5543 24.7137 46.3302 24.7309 46.1264 24.7654C45.9226 24.8 45.7567 24.8402 45.6286 24.8863L45.4976 24.0405C45.6315 23.9944 45.8265 23.9484 46.0827 23.9024C46.3389 23.8564 46.6125 23.8333 46.9037 23.8333ZM49.9968 22.7545L51.0536 22.5819V23.9455H52.6779V24.8172H51.0536V26.6556C51.0536 27.018 51.1118 27.277 51.2282 27.4323C51.3447 27.5877 51.5426 27.6653 51.8221 27.6653C52.0142 27.6653 52.1831 27.6452 52.3286 27.6049C52.48 27.5646 52.5993 27.5272 52.6867 27.4927L52.8613 28.3213C52.7391 28.373 52.579 28.4248 52.381 28.4766C52.1831 28.5342 51.9502 28.5629 51.6823 28.5629C51.3563 28.5629 51.0827 28.5198 50.8614 28.4335C50.646 28.3472 50.4742 28.2234 50.3462 28.0623C50.2181 27.8955 50.1278 27.697 50.0754 27.4668C50.023 27.2309 49.9968 26.9634 49.9968 26.6642V22.7545ZM54.765 28.4594H53.7082V23.9455H54.765V28.4594ZM54.8785 22.625C54.8785 22.8207 54.8145 22.976 54.6864 23.0911C54.5583 23.2062 54.4069 23.2637 54.2322 23.2637C54.0518 23.2637 53.8975 23.2062 53.7694 23.0911C53.6413 22.976 53.5772 22.8207 53.5772 22.625C53.5772 22.4237 53.6413 22.2654 53.7694 22.1504C53.8975 22.0353 54.0518 21.9777 54.2322 21.9777C54.4069 21.9777 54.5583 22.0353 54.6864 22.1504C54.8145 22.2654 54.8785 22.4237 54.8785 22.625ZM57.9731 21.762C58.2176 21.762 58.433 21.785 58.6193 21.831C58.8056 21.8713 58.9454 21.9087 59.0385 21.9432L58.8377 22.8063C58.7387 22.7603 58.6222 22.7229 58.4883 22.6941C58.3602 22.6653 58.2205 22.6509 58.0691 22.6509C57.9003 22.6509 57.7576 22.6768 57.6412 22.7286C57.5248 22.7746 57.4316 22.8408 57.3617 22.9271C57.2919 23.0134 57.2424 23.1199 57.2133 23.2465C57.1842 23.3673 57.1696 23.4996 57.1696 23.6435V23.9455H58.8289V24.8172H57.1696V28.4594H56.1131V23.6262C56.1131 23.0451 56.2674 22.5905 56.576 22.2626C56.8843 21.9288 57.3501 21.762 57.9731 21.762Z" fill="white"/>
<path d="M6.94354 9.84935C6.42972 9.89099 5.76981 9.89099 4.92205 9.89099C2.80714 9.89099 1.09375 8.16943 1.09375 6.04535C1.09375 3.92128 2.80714 2.19922 4.92205 2.19922C7.03597 2.19922 8.75036 3.92128 8.75036 6.04535C8.75036 6.92869 8.75036 7.60879 8.70365 8.13324C8.64898 8.75286 8.52972 9.15388 8.26834 9.41363C8.00199 9.67933 7.58755 9.79681 6.94354 9.84935Z" fill="white"/>
<path d="M24.6082 9.89099C26.7221 9.89099 28.4365 8.16943 28.4365 6.04535C28.4365 3.92128 26.7221 2.19922 24.6082 2.19922C22.4933 2.19922 20.7799 3.92128 20.7799 6.04535C20.7799 7.97263 20.7789 8.93429 21.2609 9.41363C21.7409 9.89099 22.698 9.89099 24.6082 9.89099Z" fill="white"/>
<path d="M28.4375 15.9351C28.4375 18.0591 26.7231 19.7807 24.6092 19.7807H22.9743C21.9864 19.7807 20.3754 20.6725 19.4124 21.9955C18.7833 22.859 18.3947 23.6149 18.3947 24.5335V26.0563C18.3947 28.0187 16.7995 29.6094 14.8327 29.6094C12.8659 29.6094 11.2708 28.0187 11.2708 26.0563C11.2708 24.0938 12.8659 22.5031 14.8327 22.5031H16.3593C17.3302 22.5031 18.4801 21.5583 19.4124 20.4727C19.5326 20.3329 19.6499 20.1951 19.7622 20.0588C19.9252 19.8595 20.0782 19.6622 20.2134 19.4649C20.2989 19.34 20.3774 19.2151 20.447 19.0897C20.5016 18.992 20.5503 18.8939 20.5931 18.7947C20.7123 18.5167 20.7809 18.2321 20.7809 17.9347V15.9351C20.7809 13.811 22.4943 12.0889 24.6092 12.0889C26.7231 12.0889 28.4375 13.811 28.4375 15.9351Z" fill="white"/>
<path d="M28.4375 25.8248C28.4375 27.9488 26.7231 29.6704 24.6092 29.6704C22.4943 29.6704 20.7809 27.9488 20.7809 25.8248C20.7809 23.897 20.7809 22.9353 21.2629 22.456C21.7429 21.9786 22.7 21.9786 24.6092 21.9786C26.7231 21.9786 28.4375 23.7007 28.4375 25.8248Z" fill="white"/>
<path d="M14.4322 9.89099C16.5461 9.89099 18.2605 8.16943 18.2605 6.04535C18.2605 3.92128 16.5461 2.19922 14.4322 2.19922C12.3173 2.19922 10.6039 3.92128 10.6039 6.04535V8.045C10.6039 8.94668 9.96981 9.7284 9.23536 10.583C8.30313 11.6686 7.15324 12.6134 6.18225 12.6134H4.6557C2.68888 12.6134 1.09375 14.2041 1.09375 16.1665C1.09375 18.129 2.68888 19.7197 4.6557 19.7197C6.62253 19.7197 8.21765 18.129 8.21765 16.1665V14.6438C8.21765 13.7252 8.60625 12.9693 9.23536 12.1058C10.1984 10.7828 11.8094 9.89099 12.7973 9.89099H14.4322Z" fill="white"/>
<path d="M18.2605 15.9336C18.2605 18.0576 16.5461 19.7792 14.4322 19.7792H12.7973C11.8094 19.7792 10.1984 20.671 9.23536 21.994C8.60625 22.8575 8.21765 23.6134 8.21765 24.532V26.0548C8.21765 28.0172 6.62253 29.6079 4.6557 29.6079C2.68888 29.6079 1.09375 28.0172 1.09375 26.0548C1.09375 24.0923 2.68888 22.5016 4.6557 22.5016H6.18225C7.15324 22.5016 8.30313 21.5568 9.23536 20.4712C9.96981 19.6166 10.6039 18.8349 10.6039 17.9332V15.9336C10.6039 13.8095 12.3173 12.0874 14.4322 12.0874C16.5461 12.0874 18.2605 13.8095 18.2605 15.9336Z" fill="white"/>
</g>
<defs>
<clipPath id="clip0_2571_6652">
<rect width="70" height="29.6689" fill="white"/>
</clipPath>
</defs>
</svg>
